<?xml version="1.0" encoding="UTF-8" standalone="no"?>
<!DOCTYPE svg PUBLIC "-//W3C//DTD SVG 1.1//EN"
 "http://www.w3.org/Graphics/SVG/1.1/DTD/svg11.dtd">
<!-- Generated by graphviz version 2.46.0 (20210119.1425)
 -->
<!-- Title: dependencies Pages: 1 -->
<svg width="2112pt" height="284pt"
 viewBox="0.00 0.00 2112.00 284.00" xmlns="http://www.w3.org/2000/svg" xmlns:xlink="http://www.w3.org/1999/xlink">
<g id="graph0" class="graph" transform="scale(1 1) rotate(0) translate(4 280)">
<title>dependencies</title>
<polygon fill="white" stroke="transparent" points="-4,4 -4,-280 2108,-280 2108,4 -4,4"/>
<text text-anchor="start" x="1031.01" y="-42.4" font-family="sans-serif" font-weight="bold" font-size="14.00">Legend</text>
<polygon fill="#ffffb3" stroke="transparent" points="818,-10 818,-30 838,-30 838,-10 818,-10"/>
<text text-anchor="start" x="841.63" y="-15.4" font-family="sans-serif" font-size="14.00"> &#160;Declarations</text>
<polygon fill="#8dd3c7" stroke="transparent" points="931,-10 931,-30 951,-30 951,-10 931,-10"/>
<text text-anchor="start" x="954.73" y="-15.4" font-family="sans-serif" font-size="14.00"> &#160;Module</text>
<polygon fill="#80b1d3" stroke="transparent" points="1017,-10 1017,-30 1037,-30 1037,-10 1017,-10"/>
<text text-anchor="start" x="1040.78" y="-15.4" font-family="sans-serif" font-size="14.00"> &#160;Bootstrap</text>
<polygon fill="#fdb462" stroke="transparent" points="1114,-10 1114,-30 1134,-30 1134,-10 1114,-10"/>
<text text-anchor="start" x="1137.67" y="-15.4" font-family="sans-serif" font-size="14.00"> &#160;Providers</text>
<polygon fill="#fb8072" stroke="transparent" points="1210,-10 1210,-30 1230,-30 1230,-10 1210,-10"/>
<text text-anchor="start" x="1233.73" y="-15.4" font-family="sans-serif" font-size="14.00"> &#160;Exports</text>
<g id="clust1" class="cluster">
<title>cluster_AppModule</title>
<polygon fill="none" stroke="black" stroke-dasharray="1,5" points="8,-70 8,-268 2096,-268 2096,-70 8,-70"/>
</g>
<g id="clust16" class="cluster">
<title>cluster_AppModule_imports</title>
<polygon fill="none" stroke="black" points="1944,-78 1944,-130 2088,-130 2088,-78 1944,-78"/>
</g>
<g id="clust2" class="cluster">
<title>cluster_AppModule_declarations</title>
<polygon fill="none" stroke="black" points="16,-78 16,-130 1936,-130 1936,-78 16,-78"/>
</g>
<g id="clust18" class="cluster">
<title>cluster_AppModule_bootstrap</title>
<polygon fill="none" stroke="black" points="1051,-208 1051,-260 1175,-260 1175,-208 1051,-208"/>
</g>
<!-- AlertaComponent -->
<g id="node1" class="node">
<title>AlertaComponent</title>
<polygon fill="#ffffb3" stroke="black" points="1928.31,-122 1811.69,-122 1811.69,-86 1928.31,-86 1928.31,-122"/>
<text text-anchor="middle" x="1870" y="-99.8" font-family="Times,serif" font-size="14.00">AlertaComponent</text>
</g>
<!-- AppModule -->
<g id="node14" class="node">
<title>AppModule</title>
<polygon fill="#8dd3c7" stroke="black" points="1154.66,-187 1151.66,-191 1130.66,-191 1127.66,-187 1071.34,-187 1071.34,-151 1154.66,-151 1154.66,-187"/>
<text text-anchor="middle" x="1113" y="-164.8" font-family="Times,serif" font-size="14.00">AppModule</text>
</g>
<!-- AlertaComponent&#45;&gt;AppModule -->
<g id="edge1" class="edge">
<title>AlertaComponent&#45;&gt;AppModule</title>
<path fill="none" stroke="black" d="M1870,-122.04C1870,-143.66 1870,-177 1870,-177 1870,-177 1164.78,-177 1164.78,-177"/>
<polygon fill="black" stroke="black" points="1164.78,-173.5 1154.78,-177 1164.78,-180.5 1164.78,-173.5"/>
</g>
<!-- AppComponent -->
<g id="node2" class="node">
<title>AppComponent</title>
<polygon fill="#ffffb3" stroke="black" points="1793.94,-122 1688.06,-122 1688.06,-86 1793.94,-86 1793.94,-122"/>
<text text-anchor="middle" x="1741" y="-99.8" font-family="Times,serif" font-size="14.00">AppComponent</text>
</g>
<!-- AppComponent&#45;&gt;AppModule -->
<g id="edge2" class="edge">
<title>AppComponent&#45;&gt;AppModule</title>
<path fill="none" stroke="black" d="M1741,-122.22C1741,-142.37 1741,-172 1741,-172 1741,-172 1164.69,-172 1164.69,-172"/>
<polygon fill="black" stroke="black" points="1164.69,-168.5 1154.69,-172 1164.69,-175.5 1164.69,-168.5"/>
</g>
<!-- CadastrarComponent -->
<g id="node3" class="node">
<title>CadastrarComponent</title>
<polygon fill="#ffffb3" stroke="black" points="1670.47,-122 1535.53,-122 1535.53,-86 1670.47,-86 1670.47,-122"/>
<text text-anchor="middle" x="1603" y="-99.8" font-family="Times,serif" font-size="14.00">CadastrarComponent</text>
</g>
<!-- CadastrarComponent&#45;&gt;AppModule -->
<g id="edge3" class="edge">
<title>CadastrarComponent&#45;&gt;AppModule</title>
<path fill="none" stroke="black" d="M1603,-122.22C1603,-140.83 1603,-167 1603,-167 1603,-167 1164.78,-167 1164.78,-167"/>
<polygon fill="black" stroke="black" points="1164.78,-163.5 1154.78,-167 1164.78,-170.5 1164.78,-163.5"/>
</g>
<!-- EntrarComponent -->
<g id="node4" class="node">
<title>EntrarComponent</title>
<polygon fill="#ffffb3" stroke="black" points="1517.31,-122 1400.69,-122 1400.69,-86 1517.31,-86 1517.31,-122"/>
<text text-anchor="middle" x="1459" y="-99.8" font-family="Times,serif" font-size="14.00">EntrarComponent</text>
</g>
<!-- EntrarComponent&#45;&gt;AppModule -->
<g id="edge4" class="edge">
<title>EntrarComponent&#45;&gt;AppModule</title>
<path fill="none" stroke="black" d="M1459,-122.03C1459,-139.06 1459,-162 1459,-162 1459,-162 1164.74,-162 1164.74,-162"/>
<polygon fill="black" stroke="black" points="1164.74,-158.5 1154.74,-162 1164.74,-165.5 1164.74,-158.5"/>
</g>
<!-- InicioComponent -->
<g id="node5" class="node">
<title>InicioComponent</title>
<polygon fill="#ffffb3" stroke="black" points="1382.99,-122 1269.01,-122 1269.01,-86 1382.99,-86 1382.99,-122"/>
<text text-anchor="middle" x="1326" y="-99.8" font-family="Times,serif" font-size="14.00">InicioComponent</text>
</g>
<!-- InicioComponent&#45;&gt;AppModule -->
<g id="edge5" class="edge">
<title>InicioComponent&#45;&gt;AppModule</title>
<path fill="none" stroke="black" d="M1326,-122.24C1326,-137.57 1326,-157 1326,-157 1326,-157 1164.83,-157 1164.83,-157"/>
<polygon fill="black" stroke="black" points="1164.83,-153.5 1154.83,-157 1164.83,-160.5 1164.83,-153.5"/>
</g>
<!-- MenuComponent -->
<g id="node6" class="node">
<title>MenuComponent</title>
<polygon fill="#ffffb3" stroke="black" points="1250.99,-122 1137.01,-122 1137.01,-86 1250.99,-86 1250.99,-122"/>
<text text-anchor="middle" x="1194" y="-99.8" font-family="Times,serif" font-size="14.00">MenuComponent</text>
</g>
<!-- MenuComponent&#45;&gt;AppModule -->
<g id="edge6" class="edge">
<title>MenuComponent&#45;&gt;AppModule</title>
<path fill="none" stroke="black" d="M1145.92,-122.11C1145.92,-122.11 1145.92,-140.99 1145.92,-140.99"/>
<polygon fill="black" stroke="black" points="1142.42,-140.99 1145.92,-150.99 1149.42,-140.99 1142.42,-140.99"/>
</g>
<!-- PostagemDeleteComponent -->
<g id="node7" class="node">
<title>PostagemDeleteComponent</title>
<polygon fill="#ffffb3" stroke="black" points="1119.3,-122 946.7,-122 946.7,-86 1119.3,-86 1119.3,-122"/>
<text text-anchor="middle" x="1033" y="-99.8" font-family="Times,serif" font-size="14.00">PostagemDeleteComponent</text>
</g>
<!-- PostagemDeleteComponent&#45;&gt;AppModule -->
<g id="edge7" class="edge">
<title>PostagemDeleteComponent&#45;&gt;AppModule</title>
<path fill="none" stroke="black" d="M1095.16,-122.11C1095.16,-122.11 1095.16,-140.99 1095.16,-140.99"/>
<polygon fill="black" stroke="black" points="1091.66,-140.99 1095.16,-150.99 1098.66,-140.99 1091.66,-140.99"/>
</g>
<!-- PostagemEditComponent -->
<g id="node8" class="node">
<title>PostagemEditComponent</title>
<polygon fill="#ffffb3" stroke="black" points="928.6,-122 769.4,-122 769.4,-86 928.6,-86 928.6,-122"/>
<text text-anchor="middle" x="849" y="-99.8" font-family="Times,serif" font-size="14.00">PostagemEditComponent</text>
</g>
<!-- PostagemEditComponent&#45;&gt;AppModule -->
<g id="edge8" class="edge">
<title>PostagemEditComponent&#45;&gt;AppModule</title>
<path fill="none" stroke="black" d="M849,-122.24C849,-137.57 849,-157 849,-157 849,-157 1061.17,-157 1061.17,-157"/>
<polygon fill="black" stroke="black" points="1061.17,-160.5 1071.17,-157 1061.17,-153.5 1061.17,-160.5"/>
</g>
<!-- RodapeComponent -->
<g id="node9" class="node">
<title>RodapeComponent</title>
<polygon fill="#ffffb3" stroke="black" points="751.1,-122 626.9,-122 626.9,-86 751.1,-86 751.1,-122"/>
<text text-anchor="middle" x="689" y="-99.8" font-family="Times,serif" font-size="14.00">RodapeComponent</text>
</g>
<!-- RodapeComponent&#45;&gt;AppModule -->
<g id="edge9" class="edge">
<title>RodapeComponent&#45;&gt;AppModule</title>
<path fill="none" stroke="black" d="M689,-122.03C689,-139.06 689,-162 689,-162 689,-162 1061.18,-162 1061.18,-162"/>
<polygon fill="black" stroke="black" points="1061.18,-165.5 1071.18,-162 1061.18,-158.5 1061.18,-165.5"/>
</g>
<!-- TemaComponent -->
<g id="node10" class="node">
<title>TemaComponent</title>
<polygon fill="#ffffb3" stroke="black" points="608.7,-122 495.3,-122 495.3,-86 608.7,-86 608.7,-122"/>
<text text-anchor="middle" x="552" y="-99.8" font-family="Times,serif" font-size="14.00">TemaComponent</text>
</g>
<!-- TemaComponent&#45;&gt;AppModule -->
<g id="edge10" class="edge">
<title>TemaComponent&#45;&gt;AppModule</title>
<path fill="none" stroke="black" d="M552,-122.22C552,-140.83 552,-167 552,-167 552,-167 1061.29,-167 1061.29,-167"/>
<polygon fill="black" stroke="black" points="1061.29,-170.5 1071.29,-167 1061.29,-163.5 1061.29,-170.5"/>
</g>
<!-- TemaDeleteComponent -->
<g id="node11" class="node">
<title>TemaDeleteComponent</title>
<polygon fill="#ffffb3" stroke="black" points="477.74,-122 328.26,-122 328.26,-86 477.74,-86 477.74,-122"/>
<text text-anchor="middle" x="403" y="-99.8" font-family="Times,serif" font-size="14.00">TemaDeleteComponent</text>
</g>
<!-- TemaDeleteComponent&#45;&gt;AppModule -->
<g id="edge11" class="edge">
<title>TemaDeleteComponent&#45;&gt;AppModule</title>
<path fill="none" stroke="black" d="M403,-122.22C403,-142.37 403,-172 403,-172 403,-172 1061.24,-172 1061.24,-172"/>
<polygon fill="black" stroke="black" points="1061.24,-175.5 1071.24,-172 1061.24,-168.5 1061.24,-175.5"/>
</g>
<!-- TemaEditComponent -->
<g id="node12" class="node">
<title>TemaEditComponent</title>
<polygon fill="#ffffb3" stroke="black" points="310.04,-122 173.96,-122 173.96,-86 310.04,-86 310.04,-122"/>
<text text-anchor="middle" x="242" y="-99.8" font-family="Times,serif" font-size="14.00">TemaEditComponent</text>
</g>
<!-- TemaEditComponent&#45;&gt;AppModule -->
<g id="edge12" class="edge">
<title>TemaEditComponent&#45;&gt;AppModule</title>
<path fill="none" stroke="black" d="M242,-122.04C242,-143.66 242,-177 242,-177 242,-177 1061.28,-177 1061.28,-177"/>
<polygon fill="black" stroke="black" points="1061.28,-180.5 1071.28,-177 1061.28,-173.5 1061.28,-180.5"/>
</g>
<!-- UserEditComponent -->
<g id="node13" class="node">
<title>UserEditComponent</title>
<polygon fill="#ffffb3" stroke="black" points="155.59,-122 24.41,-122 24.41,-86 155.59,-86 155.59,-122"/>
<text text-anchor="middle" x="90" y="-99.8" font-family="Times,serif" font-size="14.00">UserEditComponent</text>
</g>
<!-- UserEditComponent&#45;&gt;AppModule -->
<g id="edge13" class="edge">
<title>UserEditComponent&#45;&gt;AppModule</title>
<path fill="none" stroke="black" d="M90,-122.09C90,-145.13 90,-182 90,-182 90,-182 1061.31,-182 1061.31,-182"/>
<polygon fill="black" stroke="black" points="1061.31,-185.5 1071.31,-182 1061.31,-178.5 1061.31,-185.5"/>
</g>
<!-- AppComponent  -->
<g id="node16" class="node">
<title>AppComponent </title>
<polygon fill="#80b1d3" stroke="black" points="1167.44,-252 1058.56,-252 1058.56,-216 1167.44,-216 1167.44,-252"/>
<text text-anchor="middle" x="1113" y="-229.8" font-family="Times,serif" font-size="14.00">AppComponent </text>
</g>
<!-- AppModule&#45;&gt;AppComponent  -->
<g id="edge15" class="edge">
<title>AppModule&#45;&gt;AppComponent </title>
<path fill="none" stroke="black" stroke-dasharray="1,5" d="M1113,-187.11C1113,-187.11 1113,-205.99 1113,-205.99"/>
<polygon fill="black" stroke="black" points="1109.5,-205.99 1113,-215.99 1116.5,-205.99 1109.5,-205.99"/>
</g>
<!-- AppRoutingModule -->
<g id="node15" class="node">
<title>AppRoutingModule</title>
<polygon fill="#8dd3c7" stroke="black" points="2080.27,-122 2077.27,-126 2056.27,-126 2053.27,-122 1951.73,-122 1951.73,-86 2080.27,-86 2080.27,-122"/>
<text text-anchor="middle" x="2016" y="-99.8" font-family="Times,serif" font-size="14.00">AppRoutingModule</text>
</g>
<!-- AppRoutingModule&#45;&gt;AppModule -->
<g id="edge14" class="edge">
<title>AppRoutingModule&#45;&gt;AppModule</title>
<path fill="none" stroke="black" d="M2016,-122.09C2016,-145.13 2016,-182 2016,-182 2016,-182 1164.74,-182 1164.74,-182"/>
<polygon fill="black" stroke="black" points="1164.74,-178.5 1154.74,-182 1164.74,-185.5 1164.74,-178.5"/>
</g>
</g>
</svg>
